<svg width="36" height="36" viewBox="0 0 36 36" fill="none" xmlns="http://www.w3.org/2000/svg">
<g clip-path="url(#clip0_134_596)">
<path d="M17.982 0C8.046 0 0 8.064 0 18C0 27.936 8.046 36 17.982 36C27.936 36 36 27.936 36 18C36 8.064 27.936 0 17.982 0ZM25.2 25.2C25.0335 25.3669 24.8357 25.4993 24.6179 25.5895C24.4001 25.6799 24.1668 25.7265 23.931 25.7265C23.6952 25.7265 23.4619 25.6799 23.2441 25.5895C23.0263 25.4993 22.8285 25.3669 22.662 25.2L16.74 19.278C16.5699 19.1113 16.4346 18.9125 16.3419 18.6931C16.2492 18.4737 16.201 18.2382 16.2 18V10.8C16.2 9.81 17.01 9 18 9C18.99 9 19.8 9.81 19.8 10.8V17.262L25.2 22.662C25.902 23.364 25.902 24.498 25.2 25.2Z" fill="#F08D46"/>
</g>
<defs>
<clipPath id="clip0_134_596">
<rect width="36" height="36" fill="white"/>
</clipPath>
</defs>
</svg>
