<svg width="36" height="36" viewBox="0 0 36 36" fill="none" xmlns="http://www.w3.org/2000/svg">
<g clip-path="url(#clip0_134_1381)">
<path d="M6.51316 11.2926L7.49842 10.2884C8.59737 9.18947 10.4163 9.18947 11.5532 10.3642L11.5911 10.4211C12.5195 11.3684 13.7511 11.8232 15.0963 11.9558C16.9342 12.1263 18.7153 13.1116 19.89 14.8926C21.1784 16.9389 21.1595 19.6674 19.8142 21.6947C19.3068 22.4972 18.6245 23.1743 17.8183 23.6757C17.0121 24.177 16.103 24.4895 15.1589 24.5897C14.2148 24.6899 13.2604 24.5753 12.3669 24.2545C11.4734 23.9336 10.6641 23.4148 9.99947 22.7368C8.93842 21.6947 8.33211 20.3495 8.18053 18.9474C8.02895 17.5642 7.47947 16.2568 6.51316 15.2905C5.41421 14.2105 5.41421 12.3916 6.51316 11.2926ZM14.4711 26.5263C12.2542 26.5263 10.1889 25.6737 8.65421 24.1011C7.3279 22.7368 6.49421 21.0316 6.28579 19.1747C6.22895 18.6063 6.05842 17.8674 5.60368 17.1853C4.46684 18.7579 3.78474 20.6526 3.78474 22.7368C3.78474 25.8442 5.30053 28.5916 7.63105 30.3158H32.2058V28.4211C32.2058 21.6 27.6774 15.8211 21.4816 13.9263C23.1679 16.5789 23.13 20.1221 21.4058 22.7368C19.89 25.1053 17.2753 26.5263 14.4711 26.5263ZM24.21 10.5347H26.6163C28.2647 10.5347 29.7047 11.6905 29.7047 13.7558V15.1579H32.0732V13.2632C32.0732 10.4211 29.5532 8.26105 26.6163 8.26105H24.21C22.6374 8.26105 21.2921 6.70737 21.2921 5.11579C21.2921 3.52421 22.6374 2.34947 24.21 2.34947V0C21.2921 0 18.9426 2.34947 18.9426 5.26737C18.9426 8.18526 21.2921 10.5347 24.21 10.5347ZM4.73211 10.5158C4.84579 10.3263 4.99737 10.1368 5.16789 9.94737L6.15316 8.96211C6.32368 8.79158 6.51316 8.65895 6.70263 8.52632L4.03105 5.81684C4.29632 5.30526 4.20158 4.64211 3.78474 4.20632C3.51341 3.94219 3.1497 3.7944 2.77105 3.7944C2.39239 3.7944 2.02869 3.94219 1.75737 4.20632C1.49211 4.47158 1.35947 4.79368 1.34053 5.13474C0.999474 5.15368 0.677368 5.28632 0.412105 5.55158C-0.137368 6.10105 -0.137368 7.01053 0.412105 7.57895C0.847895 7.99579 1.49211 8.09053 2.02263 7.82526L4.73211 10.5158ZM31.05 4.52842C32.0163 3.56211 32.6226 2.25474 32.6226 0.795789H30.2542C30.2542 2.36842 28.9279 3.69474 27.3553 3.69474V6.04421C30.8795 6.04421 33.6458 8.92421 33.6458 12.4484V17.0526H35.9953V12.4484C36.0047 10.7957 35.5451 9.17413 34.6697 7.77219C33.7943 6.37026 32.5391 5.24545 31.05 4.52842ZM5.67947 36H32.2058C34.3089 36 35.9953 34.3137 35.9953 32.2105H1.89C1.89 33.2155 2.28924 34.1793 2.99992 34.8901C3.71058 35.6008 4.67445 36 5.67947 36Z" fill="#F08D46"/>
</g>
<defs>
<clipPath id="clip0_134_1381">
<rect width="36" height="36" fill="white"/>
</clipPath>
</defs>
</svg>
