<svg width="36" height="36" viewBox="0 0 36 36" fill="none" xmlns="http://www.w3.org/2000/svg">
<g clip-path="url(#clip0_134_598)">
<path d="M18 16.2C20.387 16.2 22.6762 17.1482 24.3639 18.836C26.0518 20.5239 27 22.813 27 25.2V36H9V25.2C9 22.813 9.94822 20.5239 11.636 18.836C13.3239 17.1482 15.613 16.2 18 16.2ZM5.9184 21.6108C5.63195 22.577 5.46273 23.5742 5.4144 24.5808L5.4 25.2V36H1.64371e-07V27.9C-0.000354254 26.3477 0.572452 24.8497 1.60854 23.6938C2.64463 22.5378 4.07106 21.805 5.6142 21.636L5.9202 21.6108H5.9184ZM30.0816 21.6108C31.6834 21.7084 33.1877 22.4135 34.2875 23.5823C35.3873 24.7509 35.9998 26.2953 36 27.9V36H30.6V25.2C30.6 23.9526 30.42 22.7484 30.0816 21.6108ZM6.3 10.8C7.49347 10.8 8.63807 11.2741 9.48197 12.118C10.3259 12.9619 10.8 14.1065 10.8 15.3C10.8 16.4935 10.3259 17.6381 9.48197 18.482C8.63807 19.3259 7.49347 19.8 6.3 19.8C5.10653 19.8 3.96194 19.3259 3.11803 18.482C2.2741 17.6381 1.8 16.4935 1.8 15.3C1.8 14.1065 2.2741 12.9619 3.11803 12.118C3.96194 11.2741 5.10653 10.8 6.3 10.8ZM29.7 10.8C30.8934 10.8 32.038 11.2741 32.882 12.118C33.7259 12.9619 34.2 14.1065 34.2 15.3C34.2 16.4935 33.7259 17.6381 32.882 18.482C32.038 19.3259 30.8934 19.8 29.7 19.8C28.5066 19.8 27.362 19.3259 26.518 18.482C25.6741 17.6381 25.2 16.4935 25.2 15.3C25.2 14.1065 25.6741 12.9619 26.518 12.118C27.362 11.2741 28.5066 10.8 29.7 10.8ZM18 0C19.9096 0 21.7409 0.758569 23.0911 2.10883C24.4415 3.45908 25.2 5.29045 25.2 7.2C25.2 9.10955 24.4415 10.9409 23.0911 12.2912C21.7409 13.6414 19.9096 14.4 18 14.4C16.0904 14.4 14.2591 13.6414 12.9088 12.2912C11.5586 10.9409 10.8 9.10955 10.8 7.2C10.8 5.29045 11.5586 3.45908 12.9088 2.10883C14.2591 0.758569 16.0904 0 18 0Z" fill="#F08D46"/>
</g>
<defs>
<clipPath id="clip0_134_598">
<rect width="36" height="36" fill="white"/>
</clipPath>
</defs>
</svg>
